<?xml version="1.0" encoding="UTF-8"?>
<svg xmlns="http://www.w3.org/2000/svg" xmlns:xlink="http://www.w3.org/1999/xlink" width="50px" height="50px" viewBox="0 0 50 50" version="1.1">
<g id="surface1">
<path style=" stroke:none;fill-rule:nonzero;fill:rgb(0%,0%,0%);fill-opacity:1;" d="M 18.492188 11.765625 L 18.492188 17.515625 L 6.308594 23.089844 L 18.492188 28.867188 L 18.492188 34.5 L 0 25.726562 L 0 20.597656 Z M 31.074219 16.96875 C 31.074219 15.5 29.722656 14.578125 28.648438 15.3125 C 27.574219 16.046875 27.574219 17.894531 28.648438 18.628906 C 29.722656 19.363281 31.074219 18.4375 31.074219 16.96875 Z M 26.667969 21.484375 C 23.023438 19.484375 23.023438 14.464844 26.667969 12.46875 C 30.3125 10.46875 34.890625 12.980469 34.890625 16.976562 C 34.890625 20.96875 30.3125 23.480469 26.667969 21.484375 Z M 46.183594 33.195312 C 46.183594 31.726562 44.832031 30.804688 43.757812 31.539062 C 42.683594 32.273438 42.683594 34.117188 43.757812 34.851562 C 44.832031 35.585938 46.183594 34.664062 46.183594 33.195312 Z M 41.777344 37.707031 C 38.132812 35.710938 38.132812 30.6875 41.777344 28.691406 C 45.421875 26.695312 50 29.203125 50 33.199219 C 50 37.195312 45.421875 39.703125 41.777344 37.707031 Z M 30.578125 38.410156 L 49.566406 11.589844 L 43.078125 11.589844 L 23.777344 38.410156 Z M 30.578125 38.410156 "/>
</g>
</svg>
