<svg class="skill-icons" width="50" height="50" viewBox="0 0 93 123" fill="#000000" xmlns="http://www.w3.org/2000/svg">
    <path d="M10.6601 0H16.2053V5.47862H21.2791V0H26.8243V16.5845H21.2791V11.0341H16.2053V16.5845H10.6652V0H10.6601Z" fill="#000000"/>
    <path d="M34.1118 5.49912H29.2328V0H44.5412V5.49912H39.6571V16.5845H34.1118V5.49912Z" fill="#000000"/>
    <path d="M46.9705 0H52.7515L56.3082 5.82712L59.8598 0H65.6408V16.5845H60.1212V8.36399L56.3082 14.2629H56.2108L52.3927 8.36911V16.5845H46.9705V0V0Z" fill="#000000"/>
    <path d="M68.3982 0H73.9486V11.1059H81.7385V16.5896H68.3982V0V0Z" fill="#000000"/>
    <path fill-rule="evenodd" clip-rule="evenodd" d="M10.4857 113.119L0 24.1747H92.2499L81.759 113.109L46.0737 123L10.4857 113.119ZM31.6878 64.4315L30.6936 53.259H72.4366L73.4104 42.353H18.778L21.7197 75.3426H59.5268L58.2609 89.4876L46.0942 92.7778H46.0839L33.9377 89.4978L33.1587 80.8007H22.2015L23.7287 97.9284L46.0737 104.13L68.4545 97.9284L71.181 67.363L71.4475 64.4366H31.6878V64.4315Z" fill="#000000"/>
</svg>
